<?xml version="1.0" encoding="UTF-8" standalone="no"?><!DOCTYPE svg PUBLIC "-//W3C//DTD SVG 1.1//EN" "http://www.w3.org/Graphics/SVG/1.1/DTD/svg11.dtd"><svg width="100%" height="100%" viewBox="0 0 660 174" version="1.1" xmlns="http://www.w3.org/2000/svg" xmlns:xlink="http://www.w3.org/1999/xlink" xml:space="preserve" xmlns:serif="http://www.serif.com/" style="fill-rule:evenodd;clip-rule:evenodd;stroke-linejoin:round;stroke-miterlimit:1.41421;"><g><rect x="2.563" y="18.314" width="654.917" height="2.925" style="fill:#fff;"/><path d="M638.056,15.665c28.458,2.336 19.458,-17.086 11.47,-13.132c-4.216,2.074 -2.353,6.549 1.241,5.423c0.538,-0.165 1.455,-0.932 1.045,-0.165c-1.062,1.96 -2.989,1.439 -3.315,1.782c-0.033,0.047 -0.067,0.114 -0.033,0.212c0.588,2.272 3.691,-0.165 3.055,0.686c-3.627,4.723 -33.867,3.496 -13.463,5.194Z" style="fill:#fff;"/><path d="M21.988,15.665c-28.458,2.336 -19.475,-17.086 -11.471,-13.132c4.199,2.074 2.37,6.549 -1.257,5.423c-0.538,-0.165 -1.439,-0.932 -1.029,-0.148c1.063,1.943 2.972,1.422 3.315,1.765c0.034,0.047 0.05,0.114 0.034,0.212c-0.622,2.272 -3.708,-0.165 -3.07,0.686c3.641,4.723 33.881,3.496 13.478,5.194Z" style="fill:#fff;"/><path d="M339.144,15.796l-0.014,0.067l0.048,0l-0.034,-0.067Z" style="fill:#fff;fill-rule:nonzero;"/><rect x="2.546" y="152.762" width="654.887" height="2.908" style="fill:#fff;"/><path d="M638.025,158.333c28.458,-2.351 19.472,17.088 11.451,13.135c-4.199,-2.075 -2.337,-6.566 1.274,-5.44c0.541,0.181 1.439,0.931 1.029,0.181c-1.077,-1.963 -2.972,-1.438 -3.315,-1.781c-0.051,-0.067 -0.067,-0.115 -0.034,-0.212c0.605,-2.273 3.692,0.145 3.056,-0.686c-3.627,-4.74 -33.881,-3.513 -13.461,-5.197Z" style="fill:#fff;"/><path d="M21.938,158.333c-28.459,-2.351 -19.459,17.088 -11.468,13.135c4.213,-2.075 2.367,-6.566 -1.243,-5.44c-0.538,0.181 -1.42,0.931 -1.046,0.181c1.079,-1.963 2.992,-1.438 3.318,-1.781c0.064,-0.067 0.064,-0.115 0.047,-0.212c-0.602,-2.273 -3.691,0.145 -3.053,-0.686c3.625,-4.74 33.882,-3.513 13.445,-5.197Z" style="fill:#fff;"/><path d="M339.114,158.188l0.03,-0.05l-0.064,0l0.034,0.05Z" style="fill:#fff;fill-rule:nonzero;"/></g></svg>