<?xml version="1.0" encoding="UTF-8" standalone="no"?><!DOCTYPE svg PUBLIC "-//W3C//DTD SVG 1.1//EN" "http://www.w3.org/Graphics/SVG/1.1/DTD/svg11.dtd"><svg width="100%" height="100%" viewBox="0 0 160 70" version="1.1" xmlns="http://www.w3.org/2000/svg" xmlns:xlink="http://www.w3.org/1999/xlink" xml:space="preserve" xmlns:serif="http://www.serif.com/" style="fill-rule:evenodd;clip-rule:evenodd;stroke-linejoin:round;stroke-miterlimit:1.41421;"><g><path d="M64.115,12.175c0.925,-0.888 1.267,-1.719 0.816,-2.146c-0.449,-0.422 -1.328,0.625 -1.355,2.525c0,0 0.38,-0.225 0.539,-0.379Zm1.042,-2.573c0.704,0.497 0.282,1.563 -0.986,2.751c-0.215,0.201 -0.755,0.521 -0.755,0.521c-0.141,-2.385 1.038,-3.77 1.741,-3.272Z" style="fill:#fff;fill-rule:nonzero;"/><path d="M63.148,12.104c-0.315,-1.005 -0.808,-1.596 -1.305,-1.479c-0.494,0.117 -0.043,1.159 1.384,2.005c0,0 -0.028,-0.357 -0.079,-0.526Zm-1.535,-1.812c0.642,-0.253 1.282,0.488 1.69,1.85c0.071,0.234 0.104,0.732 0.104,0.732c-1.85,-0.934 -2.442,-2.329 -1.794,-2.582Z" style="fill:#fff;fill-rule:nonzero;"/><path d="M66.364,12.226c-1.676,-0.507 -2.957,0.695 -2.957,0.695c0,0 1.323,-0.76 1.942,-0.639c0.62,0.127 1.015,-0.056 1.015,-0.056Z" style="fill:#fff;fill-rule:nonzero;"/><path d="M60.133,12.226c1.851,-0.507 3.274,0.695 3.274,0.695c0,0 -1.47,-0.76 -2.156,-0.639c-0.689,0.127 -1.118,-0.056 -1.118,-0.056Z" style="fill:#fff;fill-rule:nonzero;"/><rect x="63.289" y="-9.368" width="0.15" height="22.242" style="fill:#fff;fill-rule:nonzero;"/><path d="M50.717,19.677c-1.069,-1.025 -1.463,-1.981 -0.945,-2.477c0.529,-0.489 1.536,0.721 1.565,2.916c0,0 -0.434,-0.259 -0.62,-0.439Zm-1.204,-2.972c-0.811,0.574 -0.328,1.806 1.136,3.18c0.26,0.236 0.873,0.601 0.873,0.601c0.168,-2.746 -1.193,-4.355 -2.009,-3.781Z" style="fill:#fff;fill-rule:nonzero;"/><path d="M51.832,19.597c0.366,-1.158 0.934,-1.839 1.508,-1.705c0.573,0.136 0.046,1.341 -1.599,2.313c0,0 0.035,-0.41 0.091,-0.608Zm1.778,-2.093c-0.743,-0.293 -1.485,0.563 -1.959,2.139c-0.078,0.27 -0.111,0.843 -0.111,0.843c2.138,-1.08 2.812,-2.689 2.07,-2.982Z" style="fill:#fff;fill-rule:nonzero;"/><path d="M48.117,19.738c1.937,-0.591 3.423,0.805 3.423,0.805c0,0 -1.531,-0.878 -2.252,-0.731c-0.716,0.14 -1.171,-0.074 -1.171,-0.074Z" style="fill:#fff;fill-rule:nonzero;"/><path d="M55.321,19.738c-2.139,-0.591 -3.781,0.805 -3.781,0.805c0,0 1.687,-0.878 2.487,-0.731c0.792,0.14 1.294,-0.074 1.294,-0.074Z" style="fill:#fff;fill-rule:nonzero;"/><rect x="51.493" y="-5.199" width="0.181" height="25.685" style="fill:#fff;fill-rule:nonzero;"/><g><path d="M7.047,10.615c-0.629,-0.61 -0.868,-1.182 -0.56,-1.474c0.311,-0.295 0.917,0.428 0.93,1.733c0,0 -0.258,-0.156 -0.37,-0.259Zm-0.714,-1.769c-0.484,0.343 -0.192,1.075 0.677,1.892c0.149,0.141 0.515,0.356 0.515,0.356c0.104,-1.633 -0.708,-2.591 -1.192,-2.248Z" style="fill:#fff;fill-rule:nonzero;"/><path d="M7.714,10.559c0.215,-0.685 0.553,-1.089 0.891,-1.009c0.343,0.08 0.029,0.793 -0.948,1.375c0,0 0.019,-0.244 0.057,-0.366Zm1.055,-1.239c-0.446,-0.179 -0.881,0.333 -1.164,1.267c-0.051,0.165 -0.07,0.507 -0.07,0.507c1.272,-0.643 1.676,-1.601 1.234,-1.774Z" style="fill:#fff;fill-rule:nonzero;"/><path d="M5.507,10.648c1.145,-0.351 2.028,0.479 2.028,0.479c0,0 -0.911,-0.521 -1.334,-0.436c-0.432,0.084 -0.694,-0.043 -0.694,-0.043Z" style="fill:#fff;fill-rule:nonzero;"/><path d="M9.783,10.648c-1.271,-0.351 -2.248,0.479 -2.248,0.479c0,0 1.005,-0.521 1.483,-0.436c0.47,0.084 0.765,-0.043 0.765,-0.043Z" style="fill:#fff;fill-rule:nonzero;"/><rect x="7.511" y="-4.181" width="0.104" height="15.275" style="fill:#fff;fill-rule:nonzero;"/><path d="M7.602,21.157c-2.713,0 -4.909,-2.126 -4.909,-4.751c0,-2.615 2.196,-4.741 4.909,-4.741c2.71,0 4.907,2.126 4.907,4.741c0,2.625 -2.197,4.751 -4.907,4.751Zm0,-10.074c-3.046,0 -5.515,2.384 -5.515,5.323c0,2.949 2.469,5.333 5.515,5.333c3.043,0 5.512,-2.384 5.512,-5.333c0,-2.939 -2.469,-5.323 -5.512,-5.323Z" style="fill:#fff;fill-rule:nonzero;"/></g><path d="M25.03,9.805c-0.76,-0.732 -1.042,-1.419 -0.674,-1.768c0.371,-0.349 1.096,0.512 1.119,2.083c0,0 -0.309,-0.192 -0.445,-0.315Zm-0.855,-2.117c-0.58,0.405 -0.231,1.284 0.809,2.263c0.182,0.169 0.62,0.427 0.62,0.427c0.118,-1.958 -0.857,-3.1 -1.429,-2.69Z" style="fill:#fff;fill-rule:nonzero;"/><path d="M25.823,9.743c0.26,-0.828 0.664,-1.312 1.076,-1.216c0.405,0.101 0.033,0.957 -1.138,1.649c0,0 0.023,-0.292 0.062,-0.433Zm1.272,-1.492c-0.534,-0.208 -1.063,0.406 -1.396,1.525c-0.061,0.197 -0.084,0.602 -0.084,0.602c1.526,-0.765 2.009,-1.913 1.48,-2.127Z" style="fill:#fff;fill-rule:nonzero;"/><path d="M23.178,9.844c1.38,-0.422 2.437,0.58 2.437,0.58c0,0 -1.091,-0.631 -1.603,-0.53c-0.507,0.102 -0.834,-0.05 -0.834,-0.05Z" style="fill:#fff;fill-rule:nonzero;"/><path d="M28.312,9.844c-1.527,-0.422 -2.697,0.58 -2.697,0.58c0,0 1.209,-0.631 1.773,-0.53c0.562,0.102 0.924,-0.05 0.924,-0.05Z" style="fill:#fff;fill-rule:nonzero;"/><rect x="25.582" y="-7.935" width="0.129" height="18.313" style="fill:#fff;fill-rule:nonzero;"/><path d="M28.548,12.346c-0.465,-0.445 -0.93,-0.914 -1.408,-1.346c-0.395,-0.357 -0.836,-0.7 -1.39,-0.719l-0.033,0l-0.024,0c-0.563,0.019 -1.004,0.362 -1.398,0.713c-0.475,0.433 -0.93,0.907 -1.404,1.348c-0.663,0.625 -1.658,1.516 -1.437,2.526c0.033,0.131 0.075,0.244 0.137,0.356c-0.865,0.798 -2.057,1.944 -1.868,3.126c0.045,0.245 0.13,0.451 0.252,0.649c-1.079,1.296 -2.319,3.051 -1.535,4.526c-0.971,1.14 -2.145,2.699 -1.788,4.093c0.253,0.985 1.126,1.568 2.028,1.943c1.267,0.535 2.854,0.817 4.22,1.019l0.042,0.004l0.151,0.02c0.873,0.112 1.774,0.136 2.657,0.112c0.873,0.019 1.784,0.009 2.647,-0.108l0.151,-0.019l0.047,-0.009c1.361,-0.202 2.948,-0.474 4.215,-1.01c0.901,-0.375 1.77,-0.961 2.023,-1.943c0.352,-1.394 -0.821,-2.952 -1.797,-4.094c0.77,-1.474 -0.47,-3.229 -1.55,-4.53c0.122,-0.192 0.206,-0.408 0.244,-0.642c0.188,-1.188 -1.005,-2.329 -1.868,-3.137c0.057,-0.103 0.103,-0.225 0.131,-0.356c0.216,-1 -0.779,-1.892 -1.445,-2.522Zm-2.826,-1.145c0.413,0.014 0.947,0.643 2.178,1.807c1.136,1.08 1.69,1.743 0.568,2.198c0.165,0.15 0.334,0.31 0.511,0.473c1.644,1.522 2.474,2.47 1.249,3.282c1.83,2.131 2.751,3.568 1.596,4.601c2.995,3.417 3.634,5.084 -3.417,6.116l-0.132,0.019c-0.732,0.094 -1.606,0.118 -2.525,0.108c-0.926,0.014 -1.803,-0.014 -2.535,-0.112l-0.132,-0.019c-7.051,-1.033 -6.422,-2.704 -3.437,-6.112c-1.154,-1.043 -0.234,-2.479 1.587,-4.61c-1.229,-0.812 -0.394,-1.756 1.241,-3.277c0.177,-0.165 0.346,-0.324 0.506,-0.475c-1.122,-0.46 -0.573,-1.117 0.569,-2.201c1.224,-1.155 1.755,-1.784 2.173,-1.798Z" style="fill:#fff;"/><path d="M10.266,29.568c-1.075,-1.036 -1.479,-2.003 -0.95,-2.504c0.524,-0.495 1.548,0.728 1.582,2.948c0,0 -0.444,-0.261 -0.632,-0.444Zm-1.211,-3.005c-0.826,0.581 -0.331,1.827 1.149,3.216c0.25,0.239 0.877,0.609 0.877,0.609c0.171,-2.777 -1.207,-4.405 -2.026,-3.825Z" style="fill:#fff;fill-rule:nonzero;"/><path d="M11.399,29.489c0.365,-1.172 0.939,-1.862 1.52,-1.725c0.575,0.137 0.051,1.354 -1.612,2.339c0,0 0.024,-0.415 0.092,-0.614Zm1.799,-2.118c-0.758,-0.295 -1.504,0.57 -1.981,2.163c-0.085,0.273 -0.119,0.854 -0.119,0.854c2.157,-1.093 2.851,-2.721 2.1,-3.017Z" style="fill:#fff;fill-rule:nonzero;"/><path d="M7.642,29.631c1.952,-0.598 3.456,0.814 3.456,0.814c0,0 -1.548,-0.888 -2.278,-0.74c-0.721,0.142 -1.178,-0.074 -1.178,-0.074Z" style="fill:#fff;fill-rule:nonzero;"/><path d="M14.917,29.631c-2.163,-0.598 -3.819,0.814 -3.819,0.814c0,0 1.713,-0.888 2.509,-0.74c0.809,0.142 1.31,-0.074 1.31,-0.074Z" style="fill:#fff;fill-rule:nonzero;"/><rect x="11.052" y="-18.486" width="0.182" height="48.874" style="fill:#fff;fill-rule:nonzero;"/><path d="M11.444,47.332c-4.61,0 -8.344,-3.614 -8.344,-8.064c0,-4.464 3.734,-8.072 8.344,-8.072c4.611,0 8.351,3.608 8.351,8.072c0,4.45 -3.74,8.064 -8.351,8.064Zm0,-17.137c-5.179,0 -9.38,4.064 -9.38,9.073c0,5.003 4.201,9.06 9.38,9.06c5.181,0 9.375,-4.057 9.375,-9.06c0,-5.009 -4.194,-9.073 -9.375,-9.073Z" style="fill:#fff;fill-rule:nonzero;"/><path d="M36.785,6.26c-0.634,-0.611 -0.868,-1.184 -0.562,-1.475c0.309,-0.292 0.915,0.427 0.933,1.737c0,0 -0.259,-0.16 -0.371,-0.262Zm-0.714,-1.767c-0.483,0.339 -0.191,1.071 0.676,1.888c0.15,0.141 0.517,0.357 0.517,0.357c0.098,-1.634 -0.713,-2.587 -1.193,-2.245Z" style="fill:#fff;fill-rule:nonzero;"/><path d="M37.447,6.208c0.216,-0.69 0.554,-1.094 0.897,-1.015c0.338,0.085 0.028,0.798 -0.949,1.376c0,0 0.02,-0.244 0.052,-0.361Zm1.061,-1.245c-0.447,-0.173 -0.887,0.339 -1.164,1.273c-0.052,0.164 -0.071,0.502 -0.071,0.502c1.272,-0.639 1.676,-1.597 1.235,-1.775Z" style="fill:#fff;fill-rule:nonzero;"/><path d="M35.241,6.292c1.15,-0.352 2.032,0.484 2.032,0.484c0,0 -0.91,-0.527 -1.337,-0.442c-0.422,0.084 -0.695,-0.042 -0.695,-0.042Z" style="fill:#fff;fill-rule:nonzero;"/><path d="M39.522,6.292c-1.272,-0.352 -2.249,0.484 -2.249,0.484c0,0 1.009,-0.527 1.479,-0.442c0.47,0.084 0.77,-0.042 0.77,-0.042Z" style="fill:#fff;fill-rule:nonzero;"/><rect x="37.246" y="-8.538" width="0.106" height="15.276" style="fill:#fff;fill-rule:nonzero;"/><path d="M37.48,16.699c-2.714,0 -4.911,-2.122 -4.911,-4.741c0,-2.619 2.197,-4.746 4.911,-4.746c2.708,0 4.906,2.127 4.906,4.746c0,2.619 -2.198,4.741 -4.906,4.741Zm0,-10.074c-3.047,0 -5.515,2.385 -5.515,5.333c0,2.944 2.468,5.333 5.515,5.333c3.046,0 5.511,-2.389 5.511,-5.333c0,-2.948 -2.465,-5.333 -5.511,-5.333Z" style="fill:#fff;fill-rule:nonzero;"/><g><path d="M54.642,5.926c0.633,-0.615 0.869,-1.179 0.564,-1.475c-0.315,-0.295 -0.916,0.428 -0.935,1.733c0,0 0.258,-0.15 0.371,-0.258Zm0.713,-1.77c0.483,0.347 0.197,1.075 -0.676,1.892c-0.15,0.141 -0.516,0.357 -0.516,0.357c-0.098,-1.634 0.709,-2.587 1.192,-2.249Z" style="fill:#fff;fill-rule:nonzero;"/><path d="M53.975,5.874c-0.211,-0.685 -0.549,-1.089 -0.892,-1.014c-0.338,0.085 -0.028,0.798 0.949,1.38c0,0 -0.019,-0.244 -0.057,-0.366Zm-1.057,-1.239c0.447,-0.178 0.888,0.334 1.165,1.268c0.047,0.159 0.071,0.502 0.071,0.502c-1.273,-0.643 -1.676,-1.597 -1.236,-1.77Z" style="fill:#fff;fill-rule:nonzero;"/><path d="M56.186,5.959c-1.149,-0.347 -2.032,0.478 -2.032,0.478c0,0 0.91,-0.521 1.338,-0.436c0.426,0.089 0.694,-0.042 0.694,-0.042Z" style="fill:#fff;fill-rule:nonzero;"/><path d="M51.905,5.959c1.272,-0.347 2.249,0.478 2.249,0.478c0,0 -1.005,-0.521 -1.479,-0.436c-0.474,0.089 -0.77,-0.042 -0.77,-0.042Z" style="fill:#fff;fill-rule:nonzero;"/><rect x="54.074" y="-8.866" width="0.108" height="15.271" style="fill:#fff;fill-rule:nonzero;"/><path d="M53.948,16.371c2.713,0 4.909,-2.126 4.909,-4.751c0,-2.615 -2.196,-4.741 -4.909,-4.741c-2.71,0 -4.907,2.126 -4.907,4.741c0,2.625 2.197,4.751 4.907,4.751Zm0,-10.074c3.046,0 5.515,2.384 5.515,5.323c0,2.949 -2.469,5.333 -5.515,5.333c-3.043,0 -5.512,-2.384 -5.512,-5.333c0,-2.939 2.469,-5.323 5.512,-5.323Z" style="fill:#fff;fill-rule:nonzero;"/></g><path d="M63.286,26.67c3.84,0 6.948,-3.009 6.948,-6.724c0,-3.701 -3.108,-6.71 -6.948,-6.71c-3.835,0 -6.944,3.009 -6.944,6.71c0,3.715 3.109,6.724 6.944,6.724Zm0,-14.258c4.311,0 7.806,3.374 7.806,7.534c0,4.174 -3.495,7.548 -7.806,7.548c-4.306,0 -7.801,-3.374 -7.801,-7.548c0,-4.16 3.495,-7.534 7.801,-7.534Z" style="fill:#fff;fill-rule:nonzero;"/><path d="M51.953,37.087c-4.514,0 -8.167,-3.537 -8.167,-7.904c0,-4.35 3.653,-7.887 8.167,-7.887c4.508,0 8.163,3.537 8.163,7.887c0,4.367 -3.655,7.904 -8.163,7.904Zm0,-16.759c-5.068,0 -9.175,3.966 -9.175,8.855c0,4.906 4.107,8.872 9.175,8.872c5.062,0 9.169,-3.966 9.169,-8.872c0,-4.889 -4.107,-8.855 -9.169,-8.855Z" style="fill:#fff;fill-rule:nonzero;"/></g><g><path d="M95.885,12.175c-0.925,-0.888 -1.267,-1.719 -0.816,-2.146c0.449,-0.422 1.328,0.625 1.355,2.525c0,0 -0.38,-0.225 -0.539,-0.379Zm-1.042,-2.573c-0.704,0.497 -0.282,1.563 0.986,2.751c0.215,0.201 0.755,0.521 0.755,0.521c0.141,-2.385 -1.038,-3.77 -1.741,-3.272Z" style="fill:#fff;fill-rule:nonzero;"/><path d="M96.852,12.104c0.315,-1.005 0.808,-1.596 1.305,-1.479c0.494,0.117 0.043,1.159 -1.384,2.005c0,0 0.028,-0.357 0.079,-0.526Zm1.535,-1.812c-0.642,-0.253 -1.282,0.488 -1.69,1.85c-0.071,0.234 -0.104,0.732 -0.104,0.732c1.85,-0.934 2.442,-2.329 1.794,-2.582Z" style="fill:#fff;fill-rule:nonzero;"/><path d="M93.636,12.226c1.676,-0.507 2.957,0.695 2.957,0.695c0,0 -1.323,-0.76 -1.942,-0.639c-0.62,0.127 -1.015,-0.056 -1.015,-0.056Z" style="fill:#fff;fill-rule:nonzero;"/><path d="M99.867,12.226c-1.851,-0.507 -3.274,0.695 -3.274,0.695c0,0 1.47,-0.76 2.156,-0.639c0.689,0.127 1.118,-0.056 1.118,-0.056Z" style="fill:#fff;fill-rule:nonzero;"/><rect x="96.561" y="-9.368" width="0.15" height="22.242" style="fill:#fff;fill-rule:nonzero;"/><path d="M109.283,19.677c1.069,-1.025 1.463,-1.981 0.945,-2.477c-0.529,-0.489 -1.536,0.721 -1.565,2.916c0,0 0.434,-0.259 0.62,-0.439Zm1.204,-2.972c0.811,0.574 0.328,1.806 -1.136,3.18c-0.26,0.236 -0.873,0.601 -0.873,0.601c-0.168,-2.746 1.193,-4.355 2.009,-3.781Z" style="fill:#fff;fill-rule:nonzero;"/><path d="M108.168,19.597c-0.366,-1.158 -0.934,-1.839 -1.508,-1.705c-0.573,0.136 -0.046,1.341 1.599,2.313c0,0 -0.035,-0.41 -0.091,-0.608Zm-1.778,-2.093c0.743,-0.293 1.485,0.563 1.959,2.139c0.078,0.27 0.111,0.843 0.111,0.843c-2.138,-1.08 -2.812,-2.689 -2.07,-2.982Z" style="fill:#fff;fill-rule:nonzero;"/><path d="M111.883,19.738c-1.937,-0.591 -3.423,0.805 -3.423,0.805c0,0 1.531,-0.878 2.252,-0.731c0.716,0.14 1.171,-0.074 1.171,-0.074Z" style="fill:#fff;fill-rule:nonzero;"/><path d="M104.679,19.738c2.139,-0.591 3.781,0.805 3.781,0.805c0,0 -1.687,-0.878 -2.487,-0.731c-0.792,0.14 -1.294,-0.074 -1.294,-0.074Z" style="fill:#fff;fill-rule:nonzero;"/><rect x="108.326" y="-5.199" width="0.181" height="25.685" style="fill:#fff;fill-rule:nonzero;"/><g><path d="M152.953,10.615c0.629,-0.61 0.868,-1.182 0.56,-1.474c-0.311,-0.295 -0.917,0.428 -0.93,1.733c0,0 0.258,-0.156 0.37,-0.259Zm0.714,-1.769c0.484,0.343 0.192,1.075 -0.677,1.892c-0.149,0.141 -0.515,0.356 -0.515,0.356c-0.104,-1.633 0.708,-2.591 1.192,-2.248Z" style="fill:#fff;fill-rule:nonzero;"/><path d="M152.286,10.559c-0.215,-0.685 -0.553,-1.089 -0.891,-1.009c-0.343,0.08 -0.029,0.793 0.948,1.375c0,0 -0.019,-0.244 -0.057,-0.366Zm-1.055,-1.239c0.446,-0.179 0.881,0.333 1.164,1.267c0.051,0.165 0.07,0.507 0.07,0.507c-1.272,-0.643 -1.676,-1.601 -1.234,-1.774Z" style="fill:#fff;fill-rule:nonzero;"/><path d="M154.493,10.648c-1.145,-0.351 -2.028,0.479 -2.028,0.479c0,0 0.911,-0.521 1.334,-0.436c0.432,0.084 0.694,-0.043 0.694,-0.043Z" style="fill:#fff;fill-rule:nonzero;"/><path d="M150.217,10.648c1.271,-0.351 2.248,0.479 2.248,0.479c0,0 -1.005,-0.521 -1.483,-0.436c-0.47,0.084 -0.765,-0.043 -0.765,-0.043Z" style="fill:#fff;fill-rule:nonzero;"/><rect x="152.385" y="-4.181" width="0.104" height="15.275" style="fill:#fff;fill-rule:nonzero;"/><path d="M152.398,21.157c2.713,0 4.909,-2.126 4.909,-4.751c0,-2.615 -2.196,-4.741 -4.909,-4.741c-2.71,0 -4.907,2.126 -4.907,4.741c0,2.625 2.197,4.751 4.907,4.751Zm0,-10.074c3.046,0 5.515,2.384 5.515,5.323c0,2.949 -2.469,5.333 -5.515,5.333c-3.043,0 -5.512,-2.384 -5.512,-5.333c0,-2.939 2.469,-5.323 5.512,-5.323Z" style="fill:#fff;fill-rule:nonzero;"/></g><path d="M134.97,9.805c0.76,-0.732 1.042,-1.419 0.674,-1.768c-0.371,-0.349 -1.096,0.512 -1.119,2.083c0,0 0.309,-0.192 0.445,-0.315Zm0.855,-2.117c0.58,0.405 0.231,1.284 -0.809,2.263c-0.182,0.169 -0.62,0.427 -0.62,0.427c-0.118,-1.958 0.857,-3.1 1.429,-2.69Z" style="fill:#fff;fill-rule:nonzero;"/><path d="M134.177,9.743c-0.26,-0.828 -0.664,-1.312 -1.076,-1.216c-0.405,0.101 -0.033,0.957 1.138,1.649c0,0 -0.023,-0.292 -0.062,-0.433Zm-1.272,-1.492c0.534,-0.208 1.063,0.406 1.396,1.525c0.061,0.197 0.084,0.602 0.084,0.602c-1.526,-0.765 -2.009,-1.913 -1.48,-2.127Z" style="fill:#fff;fill-rule:nonzero;"/><path d="M136.822,9.844c-1.38,-0.422 -2.437,0.58 -2.437,0.58c0,0 1.091,-0.631 1.603,-0.53c0.507,0.102 0.834,-0.05 0.834,-0.05Z" style="fill:#fff;fill-rule:nonzero;"/><path d="M131.688,9.844c1.527,-0.422 2.697,0.58 2.697,0.58c0,0 -1.209,-0.631 -1.773,-0.53c-0.562,0.102 -0.924,-0.05 -0.924,-0.05Z" style="fill:#fff;fill-rule:nonzero;"/><rect x="134.289" y="-7.935" width="0.129" height="18.313" style="fill:#fff;fill-rule:nonzero;"/><path d="M131.452,12.346c0.465,-0.445 0.93,-0.914 1.408,-1.346c0.395,-0.357 0.836,-0.7 1.39,-0.719l0.033,0l0.024,0c0.563,0.019 1.004,0.362 1.398,0.713c0.475,0.433 0.93,0.907 1.404,1.348c0.663,0.625 1.658,1.516 1.437,2.526c-0.033,0.131 -0.075,0.244 -0.137,0.356c0.865,0.798 2.057,1.944 1.868,3.126c-0.045,0.245 -0.13,0.451 -0.252,0.649c1.079,1.296 2.319,3.051 1.535,4.526c0.971,1.14 2.145,2.699 1.788,4.093c-0.253,0.985 -1.126,1.568 -2.028,1.943c-1.267,0.535 -2.854,0.817 -4.22,1.019l-0.042,0.004l-0.151,0.02c-0.873,0.112 -1.774,0.136 -2.657,0.112c-0.873,0.019 -1.784,0.009 -2.647,-0.108l-0.151,-0.019l-0.047,-0.009c-1.361,-0.202 -2.948,-0.474 -4.215,-1.01c-0.901,-0.375 -1.77,-0.961 -2.023,-1.943c-0.352,-1.394 0.821,-2.952 1.797,-4.094c-0.77,-1.474 0.47,-3.229 1.55,-4.53c-0.122,-0.192 -0.206,-0.408 -0.244,-0.642c-0.188,-1.188 1.005,-2.329 1.868,-3.137c-0.057,-0.103 -0.103,-0.225 -0.131,-0.356c-0.216,-1 0.779,-1.892 1.445,-2.522Zm2.826,-1.145c-0.413,0.014 -0.947,0.643 -2.178,1.807c-1.136,1.08 -1.69,1.743 -0.568,2.198c-0.165,0.15 -0.334,0.31 -0.511,0.473c-1.644,1.522 -2.474,2.47 -1.249,3.282c-1.83,2.131 -2.751,3.568 -1.596,4.601c-2.995,3.417 -3.634,5.084 3.417,6.116l0.132,0.019c0.732,0.094 1.606,0.118 2.525,0.108c0.926,0.014 1.803,-0.014 2.535,-0.112l0.132,-0.019c7.051,-1.033 6.422,-2.704 3.437,-6.112c1.154,-1.043 0.234,-2.479 -1.587,-4.61c1.229,-0.812 0.394,-1.756 -1.241,-3.277c-0.177,-0.165 -0.346,-0.324 -0.506,-0.475c1.122,-0.46 0.573,-1.117 -0.569,-2.201c-1.224,-1.155 -1.755,-1.784 -2.173,-1.798Z" style="fill:#fff;"/><path d="M149.734,29.568c1.075,-1.036 1.479,-2.003 0.95,-2.504c-0.524,-0.495 -1.548,0.728 -1.582,2.948c0,0 0.444,-0.261 0.632,-0.444Zm1.211,-3.005c0.826,0.581 0.331,1.827 -1.149,3.216c-0.25,0.239 -0.877,0.609 -0.877,0.609c-0.171,-2.777 1.207,-4.405 2.026,-3.825Z" style="fill:#fff;fill-rule:nonzero;"/><path d="M148.601,29.489c-0.365,-1.172 -0.939,-1.862 -1.52,-1.725c-0.575,0.137 -0.051,1.354 1.612,2.339c0,0 -0.024,-0.415 -0.092,-0.614Zm-1.799,-2.118c0.758,-0.295 1.504,0.57 1.981,2.163c0.085,0.273 0.119,0.854 0.119,0.854c-2.157,-1.093 -2.851,-2.721 -2.1,-3.017Z" style="fill:#fff;fill-rule:nonzero;"/><path d="M152.358,29.631c-1.952,-0.598 -3.456,0.814 -3.456,0.814c0,0 1.548,-0.888 2.278,-0.74c0.721,0.142 1.178,-0.074 1.178,-0.074Z" style="fill:#fff;fill-rule:nonzero;"/><path d="M145.083,29.631c2.163,-0.598 3.819,0.814 3.819,0.814c0,0 -1.713,-0.888 -2.509,-0.74c-0.809,0.142 -1.31,-0.074 -1.31,-0.074Z" style="fill:#fff;fill-rule:nonzero;"/><rect x="148.766" y="-18.486" width="0.182" height="48.874" style="fill:#fff;fill-rule:nonzero;"/><path d="M148.556,47.332c4.61,0 8.344,-3.614 8.344,-8.064c0,-4.464 -3.734,-8.072 -8.344,-8.072c-4.611,0 -8.351,3.608 -8.351,8.072c0,4.45 3.74,8.064 8.351,8.064Zm0,-17.137c5.179,0 9.38,4.064 9.38,9.073c0,5.003 -4.201,9.06 -9.38,9.06c-5.181,0 -9.375,-4.057 -9.375,-9.06c0,-5.009 4.194,-9.073 9.375,-9.073Z" style="fill:#fff;fill-rule:nonzero;"/><path d="M123.215,6.26c0.634,-0.611 0.868,-1.184 0.562,-1.475c-0.309,-0.292 -0.915,0.427 -0.933,1.737c0,0 0.259,-0.16 0.371,-0.262Zm0.714,-1.767c0.483,0.339 0.191,1.071 -0.676,1.888c-0.15,0.141 -0.517,0.357 -0.517,0.357c-0.098,-1.634 0.713,-2.587 1.193,-2.245Z" style="fill:#fff;fill-rule:nonzero;"/><path d="M122.553,6.208c-0.216,-0.69 -0.554,-1.094 -0.897,-1.015c-0.338,0.085 -0.028,0.798 0.949,1.376c0,0 -0.02,-0.244 -0.052,-0.361Zm-1.061,-1.245c0.447,-0.173 0.887,0.339 1.164,1.273c0.052,0.164 0.071,0.502 0.071,0.502c-1.272,-0.639 -1.676,-1.597 -1.235,-1.775Z" style="fill:#fff;fill-rule:nonzero;"/><path d="M124.759,6.292c-1.15,-0.352 -2.032,0.484 -2.032,0.484c0,0 0.91,-0.527 1.337,-0.442c0.422,0.084 0.695,-0.042 0.695,-0.042Z" style="fill:#fff;fill-rule:nonzero;"/><path d="M120.478,6.292c1.272,-0.352 2.249,0.484 2.249,0.484c0,0 -1.009,-0.527 -1.479,-0.442c-0.47,0.084 -0.77,-0.042 -0.77,-0.042Z" style="fill:#fff;fill-rule:nonzero;"/><rect x="122.648" y="-8.538" width="0.106" height="15.276" style="fill:#fff;fill-rule:nonzero;"/><path d="M122.52,16.699c2.714,0 4.911,-2.122 4.911,-4.741c0,-2.619 -2.197,-4.746 -4.911,-4.746c-2.708,0 -4.906,2.127 -4.906,4.746c0,2.619 2.198,4.741 4.906,4.741Zm0,-10.074c3.047,0 5.515,2.385 5.515,5.333c0,2.944 -2.468,5.333 -5.515,5.333c-3.046,0 -5.511,-2.389 -5.511,-5.333c0,-2.948 2.465,-5.333 5.511,-5.333Z" style="fill:#fff;fill-rule:nonzero;"/><g><path d="M105.358,5.926c-0.633,-0.615 -0.869,-1.179 -0.564,-1.475c0.315,-0.295 0.916,0.428 0.935,1.733c0,0 -0.258,-0.15 -0.371,-0.258Zm-0.713,-1.77c-0.483,0.347 -0.197,1.075 0.676,1.892c0.15,0.141 0.516,0.357 0.516,0.357c0.098,-1.634 -0.709,-2.587 -1.192,-2.249Z" style="fill:#fff;fill-rule:nonzero;"/><path d="M106.025,5.874c0.211,-0.685 0.549,-1.089 0.892,-1.014c0.338,0.085 0.028,0.798 -0.949,1.38c0,0 0.019,-0.244 0.057,-0.366Zm1.057,-1.239c-0.447,-0.178 -0.888,0.334 -1.165,1.268c-0.047,0.159 -0.071,0.502 -0.071,0.502c1.273,-0.643 1.676,-1.597 1.236,-1.77Z" style="fill:#fff;fill-rule:nonzero;"/><path d="M103.814,5.959c1.149,-0.347 2.032,0.478 2.032,0.478c0,0 -0.91,-0.521 -1.338,-0.436c-0.426,0.089 -0.694,-0.042 -0.694,-0.042Z" style="fill:#fff;fill-rule:nonzero;"/><path d="M108.095,5.959c-1.272,-0.347 -2.249,0.478 -2.249,0.478c0,0 1.005,-0.521 1.479,-0.436c0.474,0.089 0.77,-0.042 0.77,-0.042Z" style="fill:#fff;fill-rule:nonzero;"/><rect x="105.818" y="-8.866" width="0.108" height="15.271" style="fill:#fff;fill-rule:nonzero;"/><path d="M106.052,16.371c-2.713,0 -4.909,-2.126 -4.909,-4.751c0,-2.615 2.196,-4.741 4.909,-4.741c2.71,0 4.907,2.126 4.907,4.741c0,2.625 -2.197,4.751 -4.907,4.751Zm0,-10.074c-3.046,0 -5.515,2.384 -5.515,5.323c0,2.949 2.469,5.333 5.515,5.333c3.043,0 5.512,-2.384 5.512,-5.333c0,-2.939 -2.469,-5.323 -5.512,-5.323Z" style="fill:#fff;fill-rule:nonzero;"/></g><path d="M96.714,26.67c-3.84,0 -6.948,-3.009 -6.948,-6.724c0,-3.701 3.108,-6.71 6.948,-6.71c3.835,0 6.944,3.009 6.944,6.71c0,3.715 -3.109,6.724 -6.944,6.724Zm0,-14.258c-4.311,0 -7.806,3.374 -7.806,7.534c0,4.174 3.495,7.548 7.806,7.548c4.306,0 7.801,-3.374 7.801,-7.548c0,-4.16 -3.495,-7.534 -7.801,-7.534Z" style="fill:#fff;fill-rule:nonzero;"/><path d="M108.047,37.087c4.514,0 8.167,-3.537 8.167,-7.904c0,-4.35 -3.653,-7.887 -8.167,-7.887c-4.508,0 -8.163,3.537 -8.163,7.887c0,4.367 3.655,7.904 8.163,7.904Zm0,-16.759c5.068,0 9.175,3.966 9.175,8.855c0,4.906 -4.107,8.872 -9.175,8.872c-5.062,0 -9.169,-3.966 -9.169,-8.872c0,-4.889 4.107,-8.855 9.169,-8.855Z" style="fill:#fff;fill-rule:nonzero;"/></g><path d="M79.238,27.005c-1.069,-1.025 -1.463,-1.981 -0.945,-2.477c0.529,-0.489 1.536,0.721 1.565,2.916c0,0 -0.434,-0.259 -0.62,-0.439Zm-1.204,-2.972c-0.811,0.574 -0.328,1.806 1.136,3.18c0.26,0.236 0.873,0.601 0.873,0.601c0.168,-2.746 -1.193,-4.355 -2.009,-3.781Z" style="fill:#fff;fill-rule:nonzero;"/><path d="M80.353,26.925c0.366,-1.158 0.934,-1.839 1.508,-1.705c0.573,0.136 0.046,1.341 -1.599,2.313c0,0 0.035,-0.41 0.091,-0.608Zm1.778,-2.093c-0.743,-0.293 -1.485,0.563 -1.959,2.139c-0.078,0.27 -0.111,0.843 -0.111,0.843c2.138,-1.08 2.812,-2.689 2.07,-2.982Z" style="fill:#fff;fill-rule:nonzero;"/><path d="M76.638,27.066c1.937,-0.591 3.423,0.805 3.423,0.805c0,0 -1.531,-0.878 -2.252,-0.731c-0.716,0.14 -1.171,-0.074 -1.171,-0.074Z" style="fill:#fff;fill-rule:nonzero;"/><path d="M83.842,27.066c-2.139,-0.591 -3.781,0.805 -3.781,0.805c0,0 1.687,-0.878 2.487,-0.731c0.792,0.14 1.294,-0.074 1.294,-0.074Z" style="fill:#fff;fill-rule:nonzero;"/><rect x="80.044" y="-0.356" width="0.199" height="28.17" style="fill:#fff;fill-rule:nonzero;"/><path d="M85.752,31.924c-0.918,-0.877 -1.826,-1.8 -2.771,-2.649c-0.771,-0.698 -1.636,-1.368 -2.728,-1.404l-0.064,0l-0.053,0c-1.097,0.036 -1.962,0.706 -2.733,1.398c-0.94,0.849 -1.837,1.778 -2.765,2.649c-1.298,1.225 -3.251,2.977 -2.819,4.951c0.064,0.258 0.149,0.485 0.264,0.706c-1.699,1.568 -4.031,3.816 -3.662,6.143c0.084,0.476 0.253,0.887 0.496,1.268c-2.116,2.542 -4.549,5.988 -3.013,8.885c-1.916,2.239 -4.217,5.299 -3.51,8.043c0.496,1.927 2.211,3.072 3.979,3.817c2.491,1.048 5.605,1.592 8.286,1.994l0.084,0.011c0.101,0.016 0.201,0.031 0.296,0.043c1.709,0.22 3.488,0.263 5.208,0.22c1.727,0.037 3.505,0.011 5.209,-0.216c0.101,-0.011 0.2,-0.031 0.296,-0.037l0.09,-0.021c2.675,-0.391 5.788,-0.929 8.269,-1.979c1.774,-0.744 3.483,-1.889 3.98,-3.815c0.696,-2.739 -1.615,-5.8 -3.536,-8.043c1.52,-2.898 -0.919,-6.344 -3.04,-8.893c0.242,-0.375 0.412,-0.797 0.485,-1.26c0.37,-2.332 -1.973,-4.577 -3.673,-6.154c0.116,-0.212 0.205,-0.448 0.264,-0.702c0.422,-1.969 -1.535,-3.721 -2.839,-4.955Zm-5.558,-2.249c0.819,0.026 1.863,1.257 4.276,3.546c2.242,2.122 3.329,3.42 1.123,4.312c0.317,0.296 0.65,0.607 1.004,0.934c3.219,2.987 4.855,4.851 2.447,6.443c3.6,4.187 5.406,7.009 3.137,9.041c5.889,6.703 7.134,9.98 -6.704,12.006l-0.269,0.037c-1.431,0.185 -3.151,0.232 -4.961,0.205c-1.81,0.033 -3.53,-0.02 -4.966,-0.21l-0.268,-0.038c-13.844,-2.036 -12.609,-5.319 -6.74,-12.01c-2.269,-2.038 -0.469,-4.866 3.119,-9.045c-2.417,-1.595 -0.786,-3.447 2.428,-6.433c0.354,-0.328 0.68,-0.64 0.997,-0.935c-2.206,-0.902 -1.13,-2.196 1.114,-4.317c2.412,-2.279 3.446,-3.51 4.263,-3.536Z" style="fill:#fff;"/></svg>