<?xml version="1.0" encoding="UTF-8" standalone="no"?><!DOCTYPE svg PUBLIC "-//W3C//DTD SVG 1.1//EN" "http://www.w3.org/Graphics/SVG/1.1/DTD/svg11.dtd"><svg width="100%" height="100%" viewBox="0 0 2010 304" version="1.1" xmlns="http://www.w3.org/2000/svg" xmlns:xlink="http://www.w3.org/1999/xlink" xml:space="preserve" xmlns:serif="http://www.serif.com/" style="fill-rule:evenodd;clip-rule:evenodd;stroke-linejoin:round;stroke-miterlimit:1.41421;"><path d="M36.568,38.717c2.533,0.293 5.077,0.829 8.021,-0.195c1.364,-0.614 2.465,-1.569 3.079,-3.011c0.546,-1.374 0.751,-2.885 0.546,-4.25c-0.74,-5.487 -3.625,-10.145 -6.988,-14.248c-6.579,-7.963 -16.578,-14.395 -28.166,-13.645l-1.364,0.136l-0.546,1.511c-6.238,17.056 -9.328,37.279 -1.443,55.436c7.67,18.157 24.405,30.223 41.187,37.961c34.609,15.292 72.161,18.508 108.621,19.6c36.723,0.614 73.457,-1.296 109.771,-7.339c36.187,-7.397 71.137,-15.76 106.632,-24.18c70.728,-16.939 141.436,-34.268 212.3,-50.3c35.427,-8.216 71.263,-14.531 107.315,-18.235c35.904,-3.08 72.637,-2.739 106.963,6.793c17.066,5.136 33.098,12.738 47.22,23.167c13.918,10.818 25.077,24.258 32.279,40.427c7.057,15.281 10.897,33.292 12.739,50.504c2.261,17.338 0.692,35.359 -4.864,50.777c-4.931,15.838 -19.326,25.896 -34.881,32.621c-15.418,6.442 -33.498,9.317 -48.233,4.454c-7.193,-2.466 -13.509,-6.647 -16.862,-13.236c-1.101,-1.491 -1.374,-3.547 -2.261,-5.194c-0.214,-0.683 -0.75,-2.125 -0.896,-2.271l-0.682,-3.285c-1.228,-4.727 -1.569,-8.635 -1.911,-12.406c-0.76,-16.306 5.819,-32.065 18.079,-43.439c25.087,-22.689 62.025,-30.915 96.828,-33.166c34.95,-1.101 72.716,2.67 96.837,29.735c12.193,11.92 21.033,27.757 25.282,44.745c4.454,17.202 4.873,35.096 5.487,53.253c0.76,17.738 1.297,37.269 -12.884,48.38c-6.92,5.759 -15.214,8.498 -24.053,7.816c-8.704,-0.76 -16.862,-5.76 -21.861,-13.167l-1.092,0.682c4.718,8.031 13.216,13.849 22.611,15.146c9.249,1.569 19.6,-1.638 26.861,-7.115c7.806,-5.702 13.089,-14.61 15.077,-23.985c2.125,-9.327 1.851,-18.723 1.783,-27.757c0,-18.157 0.068,-36.802 -4.112,-55.163c-4.25,-18.304 -13.021,-35.778 -26.588,-49.686c-3.157,-3.772 -6.657,-6.725 -10.282,-9.464c-3.421,-2.67 -6.988,-6.169 -11.374,-8.693c-8.362,-5.136 -17.407,-8.44 -26.451,-10.965c-18.235,-4.941 -37.142,-6.51 -55.787,-6.169c-18.566,0.468 -37.347,2.943 -55.436,8.489c-17.952,5.419 -35.7,13.781 -50.231,27.143c-14.805,13.225 -23.771,33.848 -22.543,54.062c0.341,5.341 0.887,10.36 1.988,14.541l0.682,3.353l1.443,4.113c1.091,2.397 1.569,5.067 3.148,7.397c5.068,9.736 14.873,16.588 24.745,19.794c20.214,6.17 40.359,1.93 58.107,-5.477c8.703,-4.045 17.406,-8.772 24.735,-15.545c8.021,-6.998 13.44,-15.155 16.725,-24.892c6.51,-18.625 7.534,-38.156 4.999,-56.732c-2.192,-18.771 -6.646,-36.733 -15.213,-54.403c-8.09,-16.792 -21.11,-31.938 -36.324,-42.834c-15.341,-10.965 -32.747,-18.498 -50.709,-23.44c-36.178,-8.986 -73.388,-8.079 -109.644,-4.044c-36.314,4.191 -72.092,11.042 -107.587,19.336c-70.992,15.691 -142.196,30.418 -213.529,44.813c-35.563,6.851 -71.41,15.34 -106.496,22.124c-35.554,5.145 -71.672,8.293 -107.655,7.952c-35.837,-0.487 -72.433,-3.693 -105.19,-16.714c-16.033,-6.852 -31.178,-17.202 -38.303,-32.825c-7.27,-15.487 -5.828,-34.063 -0.614,-50.992l-1.919,1.511c9.112,-1.228 18.712,3.771 25.349,11.042c3.226,3.626 6.238,7.807 7.066,12.397c0.205,1.16 0.059,2.329 -0.214,3.285c-0.41,1.033 -1.092,1.647 -2.057,2.134c-1.91,0.955 -4.58,0.75 -7.124,0.468l-0.136,1.364Z" style="fill:#fff;fill-rule:nonzero;"/><path d="M250.31,86.083c0,0 0.614,0.683 1.91,1.852c1.18,1.092 3.43,3.694 7.69,3.84c4.717,0 8.148,-5.214 8.966,-10.428c0.965,-5.331 0.624,-11.715 -2.115,-18.352c-2.544,-6.462 -8.645,-13.235 -17.279,-15.769c-2.125,-0.546 -4.386,-0.829 -6.706,-1.17c-3.431,-0.068 -4.454,0.273 -6.851,0.419c-3.646,-0.341 -10.019,2.943 -14.054,5.955c-16.316,14.122 -17.543,41.109 -7.193,61.81c5.546,11.111 14.317,20.983 25.622,27.562c11.238,6.783 24.405,9.863 37.62,11.091c26.588,2.466 53.799,-3.43 80.591,-11.851c26.11,-9.395 53.584,-17.748 81.205,-27.211c27.406,-9.863 55.582,-19.317 83.68,-28.712c28.088,-9.103 55.914,-19.385 83.798,-27.757c27.825,-8.83 54.344,-18.079 81.477,-24.522c26.87,-6.452 52.298,-12.134 77.443,-14.122c6.237,-0.409 12.329,-1.637 18.372,-1.637c6.091,-0.068 12.056,-0.068 17.942,-0.068c11.725,-0.147 23.166,-0.624 34.335,0.068c21.929,0.614 41.87,2.865 56.265,11.237c14.317,8.343 19.941,24.326 21.373,36.041c1.784,12.466 -2.602,21.929 -7.329,26.588c-4.795,4.727 -8.567,5.75 -8.43,5.896l0.546,1.228c-0.137,-0.205 3.849,-0.887 9.531,-5.409c5.546,-4.464 11.579,-14.804 11.033,-28.585c-0.409,-13.226 -5.214,-31.11 -21.929,-42.961c-16.452,-11.306 -38.38,-14.044 -60.377,-15.692c-11.033,-1.091 -22.816,-1.169 -34.95,-1.51c-12.192,-0.546 -24.735,-0.546 -37.62,1.306c-25.7,1.978 -53.029,6.988 -79.831,14.317c-26.791,6.988 -54.344,17.007 -81.75,26.724c-27.689,9.327 -54.968,21.042 -82.442,32.006c-27.416,11.237 -55.095,21.519 -82.433,31.597c-27.552,9.249 -55.241,16.987 -82.033,24.248c-26.383,6.793 -53.243,9.669 -77.365,7.476c-24.122,-2.261 -45.154,-13.986 -54.208,-31.802l-3.363,-7.456c-1.023,-1.793 -1.296,-4.532 -1.978,-6.656c-0.896,-4.659 -1.511,-9.454 -0.896,-13.908c0.75,-8.986 3.225,-17.894 9.044,-22.757c4.454,-4.308 13.703,-6.579 19.872,-4.795c6.715,1.51 11.383,6.169 14.259,11.305c5.545,10.009 3.694,23.03 -1.988,23.508c-5.556,-0.068 -8.704,-4.591 -8.567,-3.977l-0.887,1.033Z" style="fill:#fff;fill-rule:nonzero;"/><path d="M1972.66,37.353c-2.66,0.282 -5.214,0.487 -7.27,-0.4c-0.946,-0.487 -1.832,-1.169 -2.106,-2.202c-0.409,-0.956 -0.487,-2.125 -0.214,-3.285c0.897,-4.668 3.908,-8.976 7.271,-12.475c6.773,-7.261 16.636,-12.192 25.895,-10.964l-1.91,-1.511c5.331,17.124 6.92,36.119 -0.897,51.606c-7.533,15.769 -23.429,25.905 -39.745,32.552c-33.575,12.748 -70.717,15.886 -107.11,16.373c-36.587,0.341 -73.329,-2.807 -109.429,-7.952c-35.642,-6.638 -72.17,-15.068 -108.279,-21.929c-72.502,-14.239 -145.003,-28.849 -217.174,-44.472c-35.973,-8.294 -72.296,-15.145 -109.224,-19.531c-36.665,-4.181 -74.49,-5.682 -111.36,2.943c-18.235,4.396 -36.324,11.043 -52.346,21.802c-7.612,5.751 -15.574,11.306 -21.792,18.625l-5.01,5.283l-1.16,1.306c-0.409,0.341 -0.214,0 -0.896,1.033l-0.478,0.75l-1.92,2.817c-2.475,4.035 -5.487,7.319 -7.466,11.919c-9.59,17.748 -13.907,35.973 -16.938,54.89c-2.593,18.918 -2.056,38.644 3.986,57.688c5.955,20.701 23.917,33.799 41.528,41.801c17.875,7.68 37.961,11.939 58.526,6.929c10.204,-2.397 20.281,-9.102 26.168,-18.43c3.499,-4.522 4.669,-9.668 6.501,-15.077c1.033,-4.386 2.008,-8.976 2.28,-14.463c1.91,-20.555 -6.997,-41.869 -22.075,-55.29c-14.736,-13.713 -32.815,-21.997 -51.05,-27.562c-18.293,-5.623 -37.279,-8.216 -56.196,-8.83c-18.917,-0.419 -37.961,1.033 -56.528,5.682c-9.248,2.398 -18.498,5.487 -27.133,10.351c-2.193,1.364 -4.044,2.397 -6.51,4.181l-5.419,4.317c-3.557,2.953 -7.397,5.409 -10.623,9.249c-14.181,13.703 -23.907,31.178 -28.303,49.754c-4.513,18.576 -4.591,37.62 -4.591,56.05c-0.068,9.123 -0.341,18.645 1.852,28.167c1.998,9.521 7.407,18.566 15.487,24.199c7.407,5.477 17.952,8.489 27.279,7.047c9.522,-1.17 18.225,-7.047 23.157,-15.146l-1.092,-0.682c-5.214,7.534 -13.566,12.407 -22.406,13.167c-8.986,0.682 -17.475,-2.057 -24.609,-7.69c-6.715,-5.409 -11.101,-13.362 -12.397,-22.055c-1.442,-8.635 -1.101,-17.689 -0.76,-26.939c0.555,-18.498 1.101,-36.665 5.906,-54.071c4.376,-17.192 14.044,-33.03 26.724,-44.608c2.661,-3.285 6.851,-5.828 10.409,-8.694l5.546,-4.181c1.305,-0.828 3.576,-2.056 5.213,-3.089c7.612,-3.986 16.101,-6.725 24.872,-8.635c17.261,-3.967 35.496,-4.795 53.458,-3.967c35.223,2.592 72.911,10.818 98.26,34.053c12.612,11.305 18.976,27.62 17.602,43.994c-0.059,3.694 -1.023,8.148 -2.115,12.806c-1.238,3.226 -2.056,7.417 -4.522,10.156c-3.986,6.169 -10.341,10.623 -18.089,12.602c-15.632,4.112 -33.712,1.023 -49.471,-5.751c-15.574,-6.851 -30.427,-17.689 -34.687,-33.653c-10.409,-32.279 -3.966,-71.615 10.146,-102.588c1.501,-3.976 4.659,-7.806 6.91,-11.783l1.861,-2.885l0.42,-0.682c-0.283,0.487 0.195,-0.273 0.273,-0.273l1.091,-1.228l4.522,-4.941c5.546,-6.92 12.807,-12.261 19.668,-17.738c14.6,-10.36 31.519,-17.134 48.916,-21.861c35.096,-9.054 72.375,-8.908 108.903,-5.623c36.528,3.762 72.911,10.204 108.962,18.43c72.082,15.905 143.96,33.107 215.916,49.949c36.05,8.372 71.614,16.734 108.425,24.063c36.928,5.965 74.081,7.875 111.496,7.261c37.055,-1.092 75.094,-4.113 110.326,-19.19c17.134,-7.534 34.472,-19.249 42.688,-37.611c8.567,-18.235 5.341,-38.935 -1.101,-56.264l-0.468,-1.443l-1.374,-0.136c-11.647,-0.75 -21.87,5.614 -28.722,13.567c-3.353,4.113 -6.442,8.761 -7.319,14.326c-0.146,1.365 0,2.944 0.614,4.25c0.614,1.569 1.91,2.397 3.352,3.08c2.817,0.955 5.478,0.419 7.953,0.126l-0.078,-1.364Z" style="fill:#fff;fill-rule:nonzero;"/><path d="M1753.38,85.05c0,-0.614 -3.08,3.909 -8.83,3.977c-5.974,-0.478 -7.816,-13.772 -1.861,-23.849c2.885,-5.136 7.885,-9.727 14.736,-11.169c6.51,-1.579 15.759,0.887 20.36,5.341c5.828,4.873 8.567,13.917 9.102,23.098c0.42,2.329 0.147,4.659 -0.126,7.056c-0.068,2.398 -0.273,4.795 -1.092,6.998l-0.964,3.489l-0.215,0.965c0.215,-0.487 -0.195,0.341 -0.273,0.546l-0.877,1.852l-3.43,7.533c-9.737,17.68 -31.792,28.79 -56.411,30.769c-24.668,1.988 -51.928,-1.033 -78.808,-7.807c-27.337,-7.339 -55.504,-14.95 -83.602,-24.258c-27.942,-10.009 -56.118,-20.36 -84.138,-31.529c-28.098,-11.032 -55.855,-22.679 -84.099,-31.928c-28.021,-9.668 -56.119,-19.609 -83.31,-26.597c-13.44,-4.386 -27.631,-6.296 -41.119,-9.113c-13.577,-3.148 -27.143,-3.772 -40.154,-5.204c-13.09,-1.716 -25.847,-1.852 -38.254,-1.306c-12.339,0.341 -24.326,0.419 -35.563,1.442c-22.397,1.638 -44.618,4.113 -61.459,15.146c-17.612,11.51 -22.758,29.599 -23.304,43.107c-0.682,14.044 5.487,24.589 11.169,29.053c5.829,4.59 9.864,5.204 9.668,5.409l0.537,-1.228c0.146,-0.273 -3.694,-1.169 -8.567,-5.896c-4.864,-4.659 -9.376,-14.395 -7.612,-26.997c1.657,-11.793 7.826,-28.371 22.621,-36.051c14.882,-8.226 35.291,-10.204 57.639,-10.886c11.305,-0.624 22.952,-0.147 34.949,0c5.965,0 12.066,0 18.226,0.068c6.168,0.127 12.406,1.228 18.77,1.764c25.574,1.93 51.47,7.543 78.885,13.995c27.601,6.443 54.744,15.692 83.116,24.453c28.312,8.294 56.683,18.576 85.385,27.631c57.22,19.044 114.439,37.961 168.102,55.777c27.279,8.489 54.88,14.512 81.828,12.338c13.43,-1.101 26.851,-3.918 38.497,-10.36c11.647,-6.432 20.906,-15.759 27.017,-27.211c11.013,-20.555 10.477,-48.575 -6.384,-62.824c-1.715,-2.056 -4.795,-2.884 -7.193,-4.19l-3.772,-1.511c-1.101,-0.263 -2.124,-0.263 -3.216,-0.4c-2.466,-0.214 -3.635,-0.409 -6.988,-0.555c-2.329,0.341 -4.532,0.76 -6.715,1.101c-8.849,2.329 -15.291,8.976 -18.03,15.613c-2.943,6.589 -3.421,13.099 -2.398,18.577c0.76,5.282 4.386,10.623 9.181,10.496c4.395,-0.146 6.579,-2.748 7.817,-3.713c1.374,-1.296 1.919,-1.979 1.919,-1.979l-0.76,-1.033Z" style="fill:#fff;fill-rule:nonzero;"/></svg>